<?xml version="1.0" standalone="no"?>
<!DOCTYPE svg PUBLIC "-//W3C//DTD SVG 20010904//EN"
 "http://www.w3.org/TR/2001/REC-SVG-20010904/DTD/svg10.dtd">
<svg version="1.0" xmlns="http://www.w3.org/2000/svg"
 width="500.000000pt" height="225.000000pt" viewBox="0 0 500.000000 225.000000"
 preserveAspectRatio="xMidYMid meet">

<g transform="translate(0.000000,225.000000) scale(0.100000,-0.100000)"
fill="#000000" stroke="none">
<path d="M2117 1768 c-49 -73 -60 -125 -34 -159 35 -45 114 -53 152 -14 48 47
30 108 -69 242 -1 1 -23 -30 -49 -69z"/>
<path d="M4006 1763 c-58 -85 -62 -128 -15 -167 65 -55 169 -16 169 62 0 28
-12 55 -46 105 -25 37 -50 67 -54 67 -4 0 -29 -30 -54 -67z"/>
<path d="M1331 1713 c-22 -18 -22 -19 -19 -333 l3 -315 27 -51 c57 -108 156
-167 279 -168 97 0 167 32 234 106 104 116 98 317 -12 430 -100 103 -281 109
-385 13 -15 -14 -30 -25 -33 -25 -3 0 -5 71 -5 158 0 111 -4 163 -12 174 -21
26 -53 30 -77 11z m375 -362 c164 -74 158 -326 -8 -396 -138 -57 -281 44 -281
200 0 159 148 260 289 196z"/>
<path d="M4352 1714 l-22 -15 0 -357 c0 -326 2 -361 19 -398 33 -72 115 -115
179 -93 53 18 55 84 4 94 -65 13 -77 21 -89 55 -8 24 -12 137 -12 367 -1 331
-1 332 -23 347 -12 9 -25 16 -28 16 -3 0 -16 -7 -28 -16z"/>
<path d="M752 1460 c-57 -12 -138 -57 -169 -95 -15 -16 -37 -54 -51 -83 -22
-48 -24 -64 -20 -146 3 -77 8 -99 30 -137 33 -55 97 -115 147 -136 84 -36 234
-8 292 53 31 33 39 30 39 -11 0 -44 34 -71 72 -56 14 5 28 17 32 26 13 34 6
300 -9 359 -42 160 -201 259 -363 226z m180 -126 c119 -84 119 -274 0 -358
-75 -53 -177 -46 -249 17 -91 80 -97 223 -15 311 68 73 184 86 264 30z"/>
<path d="M2152 1454 c-22 -15 -22 -17 -22 -299 l0 -285 25 -16 c23 -15 27 -15
50 0 l25 16 0 290 0 290 -26 10 c-31 12 -25 13 -52 -6z"/>
<path d="M2679 1460 c-61 -11 -140 -52 -173 -91 -59 -70 -71 -106 -71 -214 0
-85 4 -107 24 -148 51 -104 137 -159 251 -159 82 -1 142 25 194 83 20 21 39
39 42 39 4 0 3 -28 0 -62 -17 -148 -86 -218 -213 -218 -68 0 -126 24 -172 69
-69 67 -141 9 -75 -62 126 -136 354 -140 477 -8 74 79 82 114 82 351 0 194 -1
207 -23 252 -63 126 -199 192 -343 168z m139 -105 c80 -34 125 -105 125 -200
0 -126 -86 -215 -205 -215 -111 1 -208 99 -208 211 0 14 7 48 15 75 33 113
163 174 273 129z"/>
<path d="M3440 1456 c-30 -6 -66 -18 -78 -25 -46 -25 -104 -85 -130 -135 -23
-44 -26 -63 -26 -141 0 -70 4 -100 20 -136 50 -109 149 -174 263 -172 74 0
124 18 182 64 37 29 39 30 39 9 0 -29 16 -57 41 -70 16 -9 26 -8 45 5 24 15
24 16 24 184 0 201 -11 248 -77 321 -77 86 -190 122 -303 96z m156 -105 c90
-41 139 -148 114 -251 -45 -188 -294 -218 -382 -46 -38 74 -22 193 35 255 54
58 156 77 233 42z"/>
<path d="M4042 1454 c-22 -15 -22 -17 -22 -299 l0 -285 25 -16 c23 -15 27 -15
50 0 l25 16 0 283 c0 155 -4 287 -8 293 -13 20 -47 24 -70 8z"/>
</g>
</svg>
